<?xml version="1.0" encoding="UTF-8" standalone="no"?>
<!DOCTYPE svg PUBLIC "-//W3C//DTD SVG 1.1//EN" "http://www.w3.org/Graphics/SVG/1.1/DTD/svg11.dtd">
<svg width="100%" height="100%" viewBox="0 0 500 500" version="1.1" xmlns="http://www.w3.org/2000/svg" xmlns:xlink="http://www.w3.org/1999/xlink" xml:space="preserve" xmlns:serif="http://www.serif.com/" style="fill-rule:evenodd;clip-rule:evenodd;stroke-linecap:round;stroke-linejoin:round;stroke-miterlimit:1.5;">
    <rect id="Artboard1" x="0" y="0" width="500" height="500" style="fill:none;"/>
    <g id="Artboard11" serif:id="Artboard1">
        <g transform="matrix(0.199886,0,0,0.161959,317.432,45)">
            <ellipse cx="158" cy="195" rx="158" ry="195" style="fill:none;stroke:black;stroke-width:137.43px;"/>
        </g>
        <g transform="matrix(0.980838,0,0,0.982257,39.0697,51.187)">
            <path d="M316,58.006L316,195C316,302.623 265.366,378.036 178.218,378.036C93.602,378.036 80.872,280.823 73.384,258.399" style="fill:none;stroke:black;stroke-width:25.47px;"/>
        </g>
        <g transform="matrix(0.980838,0,0,0.982257,12.9175,23.1863)">
            <path d="M310.464,220.517C310.464,317.077 274.556,365.318 218.582,374.505" style="fill:none;stroke:rgb(0,83,63);stroke-width:25.47px;"/>
        </g>
        <g transform="matrix(0.99878,0,0,0.990546,72.408,52.3008)">
            <path d="M311.614,161.609C311.614,365.204 217.091,406.543 141.879,406.543" style="fill:none;stroke:rgb(0,83,63);stroke-width:25.13px;"/>
        </g>
        <g transform="matrix(1.46893,0,0,1.46893,-116.665,-195.775)">
            <path d="M145.019,386.358L155.019,340.653L186.483,372.537" style="fill:none;stroke:black;stroke-width:17.02px;"/>
        </g>
    </g>
</svg>
